<?xml version="1.0" encoding="UTF-8"?>
<svg id="Layer_2" xmlns="http://www.w3.org/2000/svg" viewBox="0 0 999.15 999.74">
  <defs>
    <style>
      .cls-1 {
        fill: #f30;
      }

      .cls-2 {
        stroke-width: 15px;
      }

      .cls-2, .cls-3 {
        fill: none;
        stroke: #f30;
        stroke-miterlimit: 10;
      }

      .cls-3 {
        stroke-width: 25px;
      }
    </style>
  </defs>
  <g id="ANGER">
    <path class="cls-1" d="M499.31,539.12c89.82,115.83,177.45,235.86,262.89,353.78,0,0,1.6,2.2,1.6,2.2,0,0,.2.28.2.28.85,1.2,1.72,2.66,2.3,4.04,5.65,12.64-3.6,27.73-17.52,28.14-1.44.1-6.23-.11-7.8-.12-63.85-1.58-128.15,1.14-192.02,2.29-92.46,1.95-184.92-2.15-277.38-.14,0,0-10.67.24-10.67.24l-2.67.06-1.33.03-.67.02s-.33,0-.33,0c-.13,0-.64-.01-.94-.03-8.75-.16-16.59-7.84-16.97-16.66-.37-4.76,1.42-9.24,4.28-12.96,0,0,1.55-2.25,1.55-2.25,83.04-120.64,167.25-240.58,255.47-358.94h0ZM500.09,600.71c-76.12,106.29-157.25,211.49-238.35,315.55,2.69-3.91.32-10.49-5.55-10.75-.08,0-.36,0-.27.01,0,0,.33,0,.33,0,1.16.03,3.48.08,4.67.11,81.76,2.23,163.55-.84,245.31-.38,70.99.17,142.35,4,213.33,3.13,9.35-.14,18.89-.25,28.19-.52,0,0,0-.02,0-.02.02-.03.04-.04,0-.07-.06-.02-.11-.02-.14-.06-.17-.24-.25.19-.24.32.04.07.08.08-.05-.07,0,0-.21-.25-.21-.25-83.66-101.86-167.32-203.15-247.03-307h0Z"/>
    <path class="cls-1" d="M113.28,518.81c23.48-.93,46.8,2.08,69.66,7.59,48.05,11.72,95,36.88,124.28,77.88,7.76,10.99,14.32,23.13,19.01,35.97,4.16,10.78,6.74,19.93.14,30.87-2.71,4.39-5.77,7.62-10.27,10.82,0,0-18.87-10.33-18.87-10.33.19-1.65.68-3.12,1.13-4.49,4.36-12.87,15.57-18.64,27.86-21.83,6.27-1.69,12.12-4.44,17.35-8.26,5.15-3.46,10.61-7.3,15.55-10.94,23.74-17.72,51.51-41.25,62.49-69.08,3.28-8.93,3.75-15.96,1.57-24.19-4.16-16.12-17.83-21.13-33.22-26.62-22.85-7.67-48.35-14.95-63.35-36.04-9.96-13.5-13.53-31.26-12.63-47.19.28-6.88,1.32-13.99,3.74-20.38,8.44-22.42,27.25-36.28,45.68-49.05,40.6-27.45,78.2-48.1,71.37-103.01-1.82-15.69-6.83-31.7-12.64-46.57-9.49-23.78-21.89-46.54-35.25-68.46-18.06-29.79-38.46-58.55-59.27-87.2,0,0,1.85-1.42,1.85-1.42,34.46,38.18,76.55,101.29,81.31,153.46,1.3,15.65-1.48,33.35-11.93,46.17-14.59,17.88-31.7,33.98-52.19,45.31-8,4.49-16.57,8.3-25.17,11.3-29.14,10.27-55.31,11.32-77.92,34-12.82,12.34-24.07,29.79-33.56,46-2.21,3.81-4.06,8.03-5.3,12.16-2.23,7.54-2.77,15.52-1.85,23.35.58,5.52,1.52,11.56,3.67,17.61,4.64,12.62,12.94,24.24,22.18,34.44,22.65,24.57,53.24,42.95,85.56,52.63,11.82,3.48,23.93,4.92,35.21,10.75,12.59,6.11,21.61,17.64,15.53,31.87-1.63,3.82-3.97,7.25-6.91,9.98,3.99-6.07,6-14.69,3.06-21.19-6.02-12.09-25.81-12.37-37.74-12.5-17.1-.14-34.13-2.8-50.65-7.34-34.32-9.54-66.68-26.97-91.63-52.86-6.58-7.11-13.15-14.55-17.69-23.33-2.3-4.49-3.97-9.37-5.23-14.42-7.19-30.75-7.69-60.26,9.4-87.94,16.89-27.95,38.05-54.43,66.86-71.25,15.58-9.34,34.2-14.7,50.92-18.73,35.45-8.04,56.08-19.73,81.5-45.52,23.58-23.44-23.04-131.85-34.81-161.48,0,0-4.58-11.18-4.58-11.18l1.85-1.42c32.83,29.8,64.17,62.19,91.15,97.87,16.62,22.15,31.64,45.57,42.25,71.41,19.25,46.23,18,93.59-16.13,132.73-15.67,18.36-35.23,32.1-54.4,45.8-6.29,4.58-12.76,9.34-18.24,14.28-3.67,3.42-7.28,7.23-8.88,10.99-.42,1.04-.62,2.07-.68,3.15-.37,3.48-.46,7.62-.11,10.52.78,10.54,9.57,14.92,18.31,19.16,17.54,7.87,34.41,12.37,51.42,24.26,17.92,12.37,28.94,31.43,31,53.1,4.99,45.26-32.4,81.53-64.61,106.45-21.69,16.98-45.19,30.01-68.01,44.91-7.55,4.76-15.77,9.42-23.56,13.79,0,0-16.05,8.53-16.05,8.54,0,0-2.81-18.86-2.81-18.86-1.45-9.75-4.35-19.15-8.47-27.84-27.75-58.42-99.98-82.31-160.1-90.03-4.19-.46-8.42-.95-12.6-1.18,0,0-.79-.04-.79-.04-.21,0-.59-.03-.53,0,0,0,5.79-46.95,5.79-46.95h0Z"/>
    <path class="cls-1" d="M893.47,550.58c-57.81,22.42-134.28,53.68-156.53,115.5,0,0-.94,2.89-.94,2.89-1.38,4.06-4.73,6.97-8.38,9.28-4.57,2.77-7.79,4.23-14.78,6.59,0,0-18.87,10.34-18.87,10.32-9.9,4.09-21.04,2.48-29.6-3.36-7.77-5-13.39-13.07-21-18.36-45.71-30.04-116.88-81.19-108.63-143.88,4.66-37.04,28.97-56.48,61.31-68.66,12.29-4.94,22.57-7.74,32.47-13.67,5.83-3.67,8.9-6.96,9.82-13.78.52-3.34.4-8.21,0-12.07-.97-4.94-5.06-8.89-9.2-12.9-12.39-11.06-26.27-19.64-39.92-30.11-24.39-18.1-47.71-41.7-56.77-71.82-15.29-49.11,7.66-99.28,34.13-139.7,29.82-44.75,67.48-84.2,106.9-120.12,0,0,1.85,1.42,1.85,1.42-2.88,6.96-6.39,15.55-9.09,22.33-5.96,14.62-11.75,29.64-17.05,44.47-7.54,21.35-14.98,44.39-18.29,66.14-1.7,11.38-2.88,26.45,1.91,35.72.86,1.54,1.86,2.87,3.12,4,2.58,2.61,5.17,5.18,7.83,7.62,15.29,14.28,32.24,25.6,52.24,31.98,14.84,4.93,30.44,7.5,46.29,12.92,35.67,11.32,64,38.98,84.29,69.41,8,12.04,15.76,24.26,19.75,38.32,4.59,15.31,4.8,32.55.54,47.67-8.25,27.52-28.76,50.75-50.13,67.12-34.26,25.65-75.39,40.62-117.8,42.74-11.06.49-22.9,1.44-32.25,7.69-10.38,6.9-8.82,20.54-1.96,29.62-3.14-2.56-5.75-5.89-7.66-9.74-4.48-8.59-2.71-19.12,4.15-26.19,9.59-9.9,22.79-14.11,35.68-17.4,35.37-9.64,68.49-29.37,93.07-56.51,4.62-5.17,8.76-10.58,12.28-16.1,3.48-5.25,5.94-11.07,8.74-16.5,2.7-4.99,6.48-9.62,8.33-14.98,1.71-5.12,1.86-10.51,1.06-15.74-1.22-8.37-5.36-16.05-9.68-23.23-12.63-20.87-26.26-41.5-46.41-54.26-11.76-7.4-24.25-10.93-38.41-14.75-11.8-3.16-25.48-7.11-37.28-12.43-24.93-10.97-46.13-29.09-63.21-49.86-7.9-8.84-12.3-21.42-13.24-32.72-4.81-54.45,45.82-129.6,81.22-168.61,0,0,1.85,1.42,1.85,1.42-20.81,28.65-41.2,57.41-59.27,87.2-13.37,21.92-25.76,44.69-35.25,68.46-5.81,14.87-10.83,30.88-12.64,46.57-7.73,61.37,41.07,79.58,83.25,110.83,14.1,10.82,27.56,23.19,34.01,41.15,2.38,6.44,3.38,13.55,3.57,20.46.97,19.64-5.11,40.83-20.04,54.9-15.83,15.34-36.67,20.52-56.5,26.94-16.12,5.27-30.78,10.63-35.57,27.38-2.67,8.79-2.42,16.73.8,26.31,4.78,14.03,14.68,27.7,24.83,38.97,11.19,12.46,23.94,23.83,37.23,34.23,6.74,5.28,13.64,10.43,20.74,15.33,10.68,7.29,22.34,13.08,33.78,19.07,3.01,1.47,8.3,4.2,11.43,5.52,0,0-18.86,10.33-18.86,10.33,1.06-11.87,3.04-23.99,6.55-35.44,17.8-58.94,71.86-97.98,126.25-121.09,21.14-8.97,42.95-16.31,65.42-21.26,0,0,1.22-.25,1.22-.25.46-.09.76-.16,1.49-.27,0,0,5.79,46.95,5.79,46.95h0Z"/>
    <path class="cls-3" d="M986.65,499.94c0,270.31-215.21,487.3-486,487.3S12.5,771.16,12.5,500.85,229.86,12.5,500.65,12.5s486,217.13,486,487.44Z"/>
    <ellipse class="cls-2" cx="500.65" cy="499.94" rx="390.86" ry="390.18"/>
  </g>
</svg>