<?xml version="1.0" encoding="UTF-8"?>
<svg id="Layer_2" xmlns="http://www.w3.org/2000/svg" xmlns:xlink="http://www.w3.org/1999/xlink" viewBox="0 0 1005.61 1003.9">
  <defs>
    <style>
      .cls-1 {
        mask: url(#mask);
      }

      .cls-2 {
        stroke-width: 15px;
      }

      .cls-2, .cls-3, .cls-4 {
        fill: none;
      }

      .cls-2, .cls-4, .cls-5 {
        stroke: #7fd115;
        stroke-miterlimit: 10;
      }

      .cls-6 {
        clip-path: url(#clippath-1);
      }

      .cls-4 {
        stroke-width: 25px;
      }

      .cls-5 {
        fill: #231f20;
      }

      .cls-7 {
        fill: #7fd115;
      }

      .cls-8 {
        clip-path: url(#clippath);
      }

      .cls-9 {
        filter: url(#luminosity-noclip);
      }
    </style>
    <filter id="luminosity-noclip" x="104.45" y="104.27" width="796.72" height="845.15" color-interpolation-filters="sRGB" filterUnits="userSpaceOnUse">
      <feFlood flood-color="#fff" result="bg"/>
      <feBlend in="SourceGraphic" in2="bg"/>
    </filter>
    <mask id="mask" x="104.45" y="104.27" width="796.72" height="845.15" maskUnits="userSpaceOnUse">
      <g class="cls-9">
        <path class="cls-5" d="M197.98,199.14l89.22,21.91-89.22,109.57-26.86-35.17-42.01-19.61,68.87-76.7ZM811.43,193.65l-88.74,21.91,88.74,109.57,26.72-35.17,41.78-19.61-68.5-76.7ZM287.2,757.92l-19.17,68.87,184.7,122.09,284.87-84.52,6.8-55.67-457.19-50.77Z"/>
      </g>
    </mask>
    <clipPath id="clippath">
      <rect class="cls-3" x="157.18" y="112.27" width="367.15" height="889.48"/>
    </clipPath>
    <clipPath id="clippath-1">
      <rect class="cls-3" x="482.06" y="112.27" width="367.15" height="889.48"/>
    </clipPath>
  </defs>
  <g id="DISGUST">
    <ellipse class="cls-4" cx="502.8" cy="501.95" rx="490.3" ry="489.45"/>
    <g class="cls-1">
      <ellipse class="cls-2" cx="502.8" cy="501.95" rx="390.86" ry="390.18"/>
    </g>
    <g>
      <g id="_x3C_Mirror_Repeat_x3E_">
        <g class="cls-8">
          <path class="cls-7" d="M193.08,112.27c1.96,2.94,5.03,4.49,8.01,6.18,3,1.7,6.12,3.27,9.34,4.82,13.7,6.42,30.23,11.93,44.48,18.17,26.68,11.07,50.93,28.84,69.61,51.03,48.23,55.94,61.07,128.94,76.74,197.2,3.5,16.33,6.84,32.57,10.62,48.8,0,0-23.98,0-23.98,0-10.32-9.01-19.82-21.8-20.54-35.35-.5-5.66,1.72-11.43,3.54-16.68,11.1-32.73,25.68-63.95,42.06-94.49,3.15-6.09,6.37-12.1,9.13-18.38,1.97-4.64,4.18-9.5,3.63-14.7,8.19,9.76,6.17,33.53,5.71,45.96-1.53,23.44-5.22,47.02-8.97,70.19-2.45,15.57-5.71,30.99-8.05,46.59-1.12,7.98-2.11,15.77-2.52,23.92,0,0-5.52,38.82-5.52,38.82-20.51-40.69-38.84-86.92-57.52-127.49-11.76-24.72-25.14-48.75-40.53-71.35-7.16-10.68-15.3-21.47-23.67-31.22-26.1-30.4-59.9-52.12-92.88-74.56-7.14-4.91-14.31-9.93-21.25-15.23-3.58-2.74-6.79-5.81-11.37-6.97,0,0,33.94-45.25,33.94-45.25h0Z"/>
          <path class="cls-7" d="M166.82,290.85c68.88,4.07,144.58,39.32,198.29,81.85,16.53,14.16,30.44,31.76,38.27,52.24,1.15,3.14,2.24,6.32,3.02,9.8,0,0-13.03,14.54-13.03,14.54-34.6-28.48-72.46-52.84-112.48-72.84-38.41-19.08-78.51-34.85-120.16-44.95,0,0-1.9-.43-1.9-.43l-.91-.2c-.28-.06-.62-.13-.76-.15,0,0,9.64-39.87,9.64-39.87h0Z"/>
          <polygon class="cls-7" points="355.52 973.94 369.75 536.4 394.75 536.88 392.19 974.64 355.52 973.94 355.52 973.94"/>
          <path class="cls-7" d="M477.37,1001.65s11.98-499.98,11.98-499.98c0,0,12.67,12.53,12.64,12.52,0,0-.24,1.75-.24,1.75-.11.83-.58,3.71-.7,4.62-1.18,7.17-2.47,14.22-4.32,20.82-.81,2.78-1.91,6.36-3.28,8.66-1.17,2.18-2.69,3.62-5.06,3.6-3.45.34-10.22,1.27-13.63,1.83-34.23,5.26-67.95,15.66-96.31,35.92-44.95,31.45-69.81,83.48-82.11,136.26-10.65,43.42-14.68,88.81-13.5,133.62.8,22.27,2.39,44.67,6.78,66.54,0,0-40.62,4.73-40.62,4.73-.15-1.71-.24-3.15-.34-4.68-.62-10.38-1.05-20.8-1.25-31.16-.59-35.38.6-70.74,4.43-105.94,11.19-111.92,52.71-245.97,169.23-287.57,25.82-9.52,53.53-13.56,80.61-14.01,0,0,12.38-.68,12.38-.68l.26,13.21,9.98,500.02s-46.97-.09-46.97-.09h0Z"/>
        </g>
      </g>
      <g id="_x3C_Mirror_Repeat_x3E_-2" data-name="_x3C_Mirror_Repeat_x3E_">
        <g class="cls-6">
          <path class="cls-7" d="M813.31,112.27c-1.96,2.94-5.03,4.49-8.01,6.18-3,1.7-6.12,3.27-9.34,4.82-13.7,6.42-30.23,11.93-44.48,18.17-26.68,11.07-50.93,28.84-69.61,51.03-48.23,55.94-61.07,128.94-76.74,197.2-3.5,16.33-6.84,32.57-10.62,48.8,0,0,23.98,0,23.98,0,10.32-9.01,19.82-21.8,20.54-35.35.5-5.66-1.72-11.43-3.54-16.68-11.1-32.73-25.68-63.95-42.06-94.49-3.15-6.09-6.37-12.1-9.13-18.38-1.97-4.64-4.18-9.5-3.63-14.7-8.19,9.76-6.17,33.53-5.71,45.96,1.53,23.44,5.22,47.02,8.97,70.19,2.45,15.57,5.71,30.99,8.05,46.59,1.12,7.98,2.11,15.77,2.52,23.92,0,0,5.52,38.82,5.52,38.82,20.51-40.69,38.84-86.92,57.52-127.49,11.76-24.72,25.14-48.75,40.53-71.35,7.16-10.68,15.3-21.47,23.67-31.22,26.1-30.4,59.9-52.12,92.88-74.56,7.14-4.91,14.31-9.93,21.25-15.23,3.58-2.74,6.79-5.81,11.37-6.97,0,0-33.94-45.25-33.94-45.25h0Z"/>
          <path class="cls-7" d="M839.57,290.85c-68.88,4.07-144.58,39.32-198.29,81.85-16.53,14.16-30.44,31.76-38.27,52.24-1.15,3.14-2.24,6.32-3.02,9.8,0,0,13.03,14.54,13.03,14.54,34.6-28.48,72.46-52.84,112.48-72.84,38.41-19.08,78.51-34.85,120.16-44.95,0,0,1.9-.43,1.9-.43l.91-.2c.28-.06.62-.13.76-.15,0,0-9.64-39.87-9.64-39.87h0Z"/>
          <polygon class="cls-7" points="650.88 973.94 636.64 536.4 611.64 536.88 614.2 974.64 650.88 973.94 650.88 973.94"/>
          <path class="cls-7" d="M529.03,1001.65s-11.98-499.98-11.98-499.98c0,0-12.67,12.53-12.64,12.52,0,0,.24,1.75.24,1.75.11.83.58,3.71.7,4.62,1.18,7.17,2.47,14.22,4.32,20.82.81,2.78,1.91,6.36,3.28,8.66,1.17,2.18,2.69,3.62,5.06,3.6,3.45.34,10.22,1.27,13.63,1.83,34.23,5.26,67.95,15.66,96.31,35.92,44.95,31.45,69.81,83.48,82.11,136.26,10.65,43.42,14.68,88.81,13.5,133.62-.8,22.27-2.39,44.67-6.78,66.54,0,0,40.62,4.73,40.62,4.73.15-1.71.24-3.15.34-4.68.62-10.38,1.05-20.8,1.25-31.16.59-35.38-.6-70.74-4.43-105.94-11.19-111.92-52.71-245.97-169.23-287.57-25.82-9.52-53.53-13.56-80.61-14.01,0,0-12.38-.68-12.38-.68l-.26,13.21-9.98,500.02s46.97-.09,46.97-.09h0Z"/>
        </g>
      </g>
    </g>
  </g>
</svg>