<?xml version="1.0" encoding="UTF-8"?>
<svg id="Layer_2" xmlns="http://www.w3.org/2000/svg" viewBox="0 0 999.61 998.7">
  <defs>
    <style>
      .cls-1 {
        fill: #63c;
      }

      .cls-2 {
        stroke-width: 15px;
      }

      .cls-2, .cls-3 {
        fill: none;
        stroke: #63c;
        stroke-miterlimit: 10;
      }

      .cls-3 {
        stroke-width: 19px;
      }
    </style>
  </defs>
  <g id="FEAR">
    <ellipse class="cls-3" cx="499.8" cy="498.95" rx="490.3" ry="489.45"/>
    <ellipse class="cls-2" cx="499.8" cy="498.95" rx="390.86" ry="390.18"/>
    <path class="cls-1" d="M115.15,475.03c199.14,10,131-216.24,359.87-231.38,51.7-2.97,105,1.3,153.14,21.59,142.45,59.86,126.73,223.43,262.51,221.21,0,0,0,25.01,0,25-17.91,3.39-35.19,7.72-51.76,14.68-12.06,4.99-23.77,11.33-34.73,18.43-35.41,23-63.2,55.45-92.25,85.86-60.37,64.97-122.18,113.26-215.81,110.37-65.29-.74-125.67-20.38-173.12-66.49-29.7-28.2-51.06-61.64-75.1-93.78-35.68-48.69-71.18-75.57-132.74-80.49,0,0,0-25,0-25h0ZM115.15,475.03c12.85-.85,26.32-.53,39.29,1.23,18.78,2.64,37.13,8.35,53.93,17.3,45.96,24.19,76.23,70.02,107.92,108.67,25.09,30.69,52.29,57.69,88.15,74.04,8.64,3.97,17.89,7.39,27.04,10.07,14.83,4.07,29.85,7.48,45.14,10.28,15.46,2.82,31.43,5.3,47.2,4.91,83.74-3.16,135.08-75.89,187.25-132.36,32.08-34.17,69.4-67.13,115.84-79.26,21.03-5.6,43.01-6.88,63.76-3.47,0,0,0,25,0,25-33.64,2.29-68.01-5.99-95.26-26.48-17.64-12.93-32.38-30.32-45.19-47.64-28.41-39-52.5-82.83-90.79-111.82-39.58-30.89-90.6-41.1-139.87-41.89-47.61-.75-98.7,4.51-138.04,33.51-38.56,28.78-58.46,69.87-88.25,108.01-28.85,37.44-64.47,67.36-112.45,75.6-21.96,3.96-44.13,3.4-65.67-.72,0,0,0-25,0-25h0Z"/>
    <path class="cls-1" d="M512.3,9.5c10.72,60.09-.23,121.97,5.91,182.43,1.65,17.96,5.16,36.19,11.75,53.21,1,2.53,2.06,5.07,3.36,7.6,0,0-67.04,0-67.04,0,17.43-37.76,17.14-80.92,17.05-121.62-.66-29.45-1.89-61.95.21-91.22.75-10.14,1.78-20.27,3.76-30.41h25Z"/>
    <path class="cls-1" d="M490.41,998.7c2.78-11.41,3.15-22.93,2.96-34.55-.15-11.52-.51-23.03-1.06-34.55-1.13-21.88-3.09-47.19-4.37-69.1-1.31-23.08-2.81-46.18-6.04-69.1-3.22-23.31-7.23-46.34-14.1-69.1,0,0,70.23,0,70.23,0-10.01,33.92-14.75,68.63-17.87,103.65-2.06,28.08-3.66,58.22-5.64,86.37-1.15,17.11-1.84,34.71-2.06,51.82-.19,11.61.18,23.14,2.96,34.55,0,0-25,0-25,0h0Z"/>
    <path class="cls-1" d="M500.46,304.89s10.89,112.7,10.89,112.7l-15.35-12.17c7.06-2.73,14.56-2.6,21.53-1.2,39.54,8.89,72.74,57.03,61.12,96.93-5.14,18.35-20.56,32.28-37.36,39.51-13.74,5.95-32.61,12.14-45.82,1.36-13.54-11.34-10.88-32.99-6.67-47.92,1.71-5.9,2.97-12.16,3.04-18.21-.03-2.64-.25-6.19-1.46-7.91-.15-.19-.22-.19-.21-.12.01.07.11.18.12.24.02.06-.05.06-.33.08-5.49.45-10.47,3.38-15.72,6.43-12.01,7.22-20.61,18.19-18.55,32.57,2.43,20.45,25.45,48.85,45.48,54.25,0,0,16.3,2.82,16.3,2.82l-.94,9.35-11.38,112.7h-2.24l-11.38-112.7s15.41,12.18,15.34,12.17c-3.82,1.28-7.65,1.72-11.21,1.67-21.28-.76-39.41-14.62-52.29-30.08-14.65-17.87-24.25-43.61-17.48-66.91,6.88-24.02,28.97-38.65,52.03-44.76,12.04-3.2,25.9-1.09,32.34,10.98,7.17,13.66,2.65,32.66-.85,44.95-1.15,5.09-1.88,10.74-1.32,15.84.26,2.11.75,4.92,2.04,5.77.19-.01.06-.2.46-.16.28-.08.42.02.71-.06.9-.1,2.02-.28,3.03-.6,4.93-1.4,9.12-3.89,13.82-6.77,15.43-9.86,21.58-23.07,14.71-40.95-6.43-16.25-19.85-32.18-34.6-41.59-2.64-1.59-4.89-2.59-6.56-3.37,0,0-16.27-2.63-16.27-2.63,0,0,.92-9.54.92-9.54l10.89-112.7s3.22,0,3.22,0h0Z"/>
    <path class="cls-1" d="M115.15,487.53c1.84-3.63,3.26-4.66,6.43-4.46,11.06-.07,31.97-.1,43.26-.09,22.76.09,51.35.36,74.1.79,23.87.54,50.29,1.18,74.01,2.46,0,0-1.41,24.96-1.41,24.96-16.42-.96-32.82-2.36-49.22-3.7-12.29-1.07-36.91-3.38-49.17-4.63-22.51-2.22-51.13-5.38-73.69-7.98,0,0-12.28-1.45-12.28-1.45,0,0-6.14-.73-6.14-.73-3.16-.15-4.46-1.36-5.89-5.16h0Z"/>
    <path class="cls-1" d="M890.46,505.7c-37.1,3.25-74.39,2.65-111.55,1.07-29.24-1.32-58.64-2.88-86.33-13.65,24.29-7.81,49.43-8.87,74.6-8.65,24.78.08,49.54.84,74.27,2.55,16.52,1.17,33,2.65,49.41,5.18,0,0-.4,13.5-.4,13.5h0Z"/>
    <path class="cls-1" d="M735.24,232.14c-.18,7.86-2.54,15.49-5.68,22.48-3,6.64-7.13,12.52-11,18.64-15.41,24.35-33.39,46.78-51.9,68.82-4.59,5.54-9.4,10.93-14.71,15.95-5.43,5.13-11.04,9.94-17.54,13.9,0,0-.26-.19-.26-.19,1.72-7.41,4.53-14.25,7.7-21.02,3.1-6.62,6.71-12.87,10.53-18.97,15.11-24.5,30.77-48.61,49.05-70.88,4.59-5.59,8.88-11.35,14.24-16.29,5.65-5.18,12.15-9.8,19.56-12.44h0Z"/>
    <path class="cls-1" d="M272.72,260.31c1.51-.89,3.59-.58,5.26-.62,5.87.34,11.9,2.55,16.41,5.75,14.28,11.83,26.08,26.41,36.66,41.55,6.93,10.19,13.88,20.34,20.42,30.8,6.52,10.81,12.4,21.81,16.34,34.04-11.14-6.36-20.73-14.3-30.05-22.78-17.52-17.02-35.61-33.66-50.42-53.14-3.6-4.91-7.49-9.54-10.5-14.85-2.74-5.09-4.05-11.54-3.94-17.55-.03-.74,0-1.6,0-2.36-.03-.27,0-.56-.16-.83h0Z"/>
    <path class="cls-1" d="M379.54,611.31s-21.64,39.06-21.64,39.06c-3.83,7.1-12.73,22.45-15.76,29.65-4.41,10.29-8.99,20.67-16.6,29.02-14.71,17-30.84,33.18-50,45.29,0,0-5.65-4.29-5.65-4.29,6.48-21.72,17.72-41.61,30.11-60.37,5.98-9.58,14.75-16.79,23.46-23.81,6.03-4.86,18.62-17.64,24.3-23.18,0,0,31.78-31.37,31.78-31.37h0Z"/>
    <path class="cls-1" d="M638.98,611.31c20.84,7.25,49.78,26.45,63.93,43.26,4,4.81,7.41,10.16,10.82,15.51,6.91,10.82,13.32,21.89,18.78,33.63,2.76,5.94,5.34,12.05,7.43,18.6-6.32-2.7-12.16-5.84-17.81-9.15-11.17-6.54-21.59-13.97-31.7-21.87-5-3.9-10.01-7.8-14.42-12.24-15.39-15.67-31.77-46.27-37.03-67.74h0Z"/>
  </g>
</svg>