<?xml version="1.0" encoding="UTF-8"?>
<svg id="Layer_2" xmlns="http://www.w3.org/2000/svg" viewBox="0 0 1005.61 1003.9">
  <defs>
    <style>
      .cls-1 {
        stroke-width: 25px;
      }

      .cls-1, .cls-2 {
        fill: none;
        stroke: #f90;
        stroke-miterlimit: 10;
      }

      .cls-2 {
        stroke-width: 15px;
      }

      .cls-3 {
        fill: #f90;
      }
    </style>
  </defs>
  <g id="HAPPY">
    <ellipse class="cls-1" cx="502.8" cy="501.95" rx="490.3" ry="489.45"/>
    <ellipse class="cls-2" cx="502.8" cy="501.95" rx="390.86" ry="390.18"/>
    <path class="cls-3" d="M192.75,386.39c1.7-2.84.12-7.25-2.62-8.42,4.84,1.67,9.58,3.49,14.31,5.52,33.66,14.12,63.01,40.3,55.32,80.23-9.74,47.31-61.82,88.4-99.33,115.03-10.12,7.1-20.46,13.81-30.97,20.23,0,0-14.67-31.27-14.67-31.27,47.4-17.16,123.47-43.42,172.37-22.68,55.76,24.61,42.94,93.73,27.54,140.31-24.58,73.17-62.02,140.71-91.54,211.69,0,0-22.1-11.53-22.1-11.53,34.88-55.63,71.3-111.08,116.51-159.47,7.75-8.1,15.88-15.97,24.7-23.38,19.11-15.7,42.01-31.05,68.12-29.33,29.03,2.05,46.97,28,56.19,52.75,19.1,53.45,20.37,110.49,21.07,166.29,0,0-34.34-3.62-34.34-3.62,13.08-66.68,32.35-148.59,82-198.42,69.16-66.02,151.57-15.39,207.3,40.25,14.61,14.37,28.22,29.41,41.16,44.89,0,0-34.63,23.85-34.63,23.85-22.72-41.16-44.3-86.7-49.61-134.77-8.73-89.17,53.6-124.06,133.64-125.63,16.7-.46,33.1.32,49.41,1.78-14.23-.43-19.98,16.4-10.66,25-15.45-14.73-32.91-26.48-48.39-41.67-34.46-32.69-44.6-77.36-47.31-122.87-1.06-25.49-4.87-51.13-12.29-75.56-27.2-91.71-109.52-173.68-207.04-181.19-13.25-.97-26.71.04-39.85,2.03-65.18,9.55-144.8,26.73-188.59,79.58-46.86,55.12-36.9,141.76-119.37,164.29-6.46,1.76-12.89,3.04-19.48,3.86,0,0-.37.05-.37.05-.15.02-.31.05,0-.03,2.94-.84,4.71-5.03,3.51-7.78h0ZM174.52,384.69c1.95-4.58,6.21-8.09,11.34-8.89,2.22-.47,4.31-1.06,6.48-1.63,23.77-6.23,43.56-19.74,54.88-42.08,13.46-26,18.92-56.69,31.06-84.32,6.23-14.74,14.06-29.05,23.8-41.89,19.41-25.93,46-45.54,74.87-59.58,43.96-21.33,92.24-32.1,140.01-39.02,29.86-4.34,60.85-2.3,89.66,6.79,99.3,31.82,160.66,131.14,181.97,228.57,3.27,15.11,5.46,30.45,6.58,45.88.53,6.73.83,15.92,1.61,22.49,2.82,28.56,9.66,58.43,27.26,81.49,17.23,22.59,42.71,36.83,63.74,55.68,6.51,5.57,2.51,16.84-6.81,16.14-15.55-.84-31.15-1.01-46.52-.03-33.79,2.52-73,9.32-93.27,38.59-31.97,49.66,11.5,133.57,37.28,179.99,0,0-20.47,14.09-20.47,14.09-34.01-39.68-79.15-88.56-130.77-102.31-78.43-19.21-114.21,84.16-131.35,143.52-5.18,18.54-9.54,37.39-13.38,56.38,0,0-24.55-2.59-24.55-2.59.33-21.43.07-42.84-1.16-64.09-2.2-33.48-8.01-106.08-38.25-124.98-11.25-6.32-22.94-3.19-35.22,2.84-18.02,9.39-33.15,23.48-47.45,38.02-44.14,46.42-79.43,100.65-113.57,155,0,0-22.11-11.54-22.11-11.54,16.92-40.18,33.99-80.17,49.65-120.81,11.5-30.14,22.36-60.24,30.79-91.12,5.06-19.5,9.58-39.12,9.56-59.07-.34-16.21-3.47-30.07-18.21-36.59-36.47-15.01-108.06,8.15-145.61,20.52,0,0-14.44-30.79-14.44-30.79,5.08-2.92,10.13-5.89,15.12-8.94,35.24-21.53,95.35-61.49,106.92-102.28,7.57-26.32-16.88-45.41-38.15-56.68-4.08-2.2-8.32-4.23-12.54-6.18-1.34-.57-2.7-1.28-3.89-2.27-2.59-1.91-4.34-5.55-4.86-8.33h0Z"/>
    <path class="cls-3" d="M322.93,380.82c3.36.89,7.12,2.24,10.12,4.47,2.48,1.81,4.29,3.91,5.86,6.3.06.09.11.17.11.19,0,0,.1.21.1.21l.21.42c7.47,15.7,19.8,28.18,32.16,40.09,25.06,23.87,55.27,42.96,88.47,52.96,98.33,30.31,194.33-32.5,261.69-100.71,0,0,10.55-15.6,10.55-15.62.54,12.44,1.75,29.38,1.48,41.63-.54,32.34-7.33,64.88-20.67,94.42-44.88,99.04-154.93,143.57-257.86,114.14-83.89-24.19-143.83-95.69-144.9-184.18-.19-8.99.19-18.36,1.26-27.28.12-1.03.37-3.62.49-4.67.52-4.92,2.05-10.05,4.71-14.41,2.12-3.49,4.48-6,6.21-7.95h0ZM329.78,404.87c2.62,2.65,7.48,3,9.62.55.03-.01.05-.1.07-.03,0,0,.06.6.06.6.7,7.1,1.42,14.38,2.52,21.4,6.62,39.58,23.49,75.59,53.48,102.77,35.15,32.25,83.77,47.93,131.13,46.38,40.28-1.37,80.21-15.41,111.65-40.78.87-.76,4.32-3.53,5.24-4.32,1.87-1.72,4.86-4.38,6.75-6.08,7.07-6.87,13.87-14.32,19.94-22.15,1.06-1.47,3.76-5,4.87-6.51,0,0,.65-.97.65-.97l5.27-7.73s4.91-8.03,4.91-8.03l4.62-8.28c10.62-20.1,18.67-41.52,24.47-63.52,1.96-6.39,3.2-12.93,4.96-19.48-.01,0,11.59,4.95,11.54,4.96-18.23,21.07-36.91,42.44-56.87,62.2-32.23,32.05-69.63,61.42-114.58,72.67-78.28,19.32-139.61-15.1-191.13-71.65-7.01-7.61-13.75-15.41-20.3-23.38-8.04-10.09-16.51-20.27-26.39-28.66,0,0-.19-.16-.19-.16-.05-.04-.04-.03-.03,0,1.35,2.7,5.8,1.89,7.77.19h0Z"/>
  </g>
</svg>