<?xml version="1.0" encoding="UTF-8"?>
<svg id="Layer_2" xmlns="http://www.w3.org/2000/svg" xmlns:xlink="http://www.w3.org/1999/xlink" viewBox="0 0 1005.61 1003.9">
  <defs>
    <style>
      .cls-1 {
        mask: url(#mask);
      }

      .cls-2 {
        fill: #1db8e1;
      }

      .cls-3, .cls-4, .cls-5 {
        fill: none;
      }

      .cls-4 {
        stroke-width: 15px;
      }

      .cls-4, .cls-5 {
        stroke: #1db8e1;
        stroke-miterlimit: 10;
      }

      .cls-6 {
        clip-path: url(#clippath-1);
      }

      .cls-7 {
        fill: #231f20;
      }

      .cls-5 {
        stroke-width: 25px;
      }

      .cls-8 {
        clip-path: url(#clippath);
      }

      .cls-9 {
        filter: url(#luminosity-noclip);
      }
    </style>
    <filter id="luminosity-noclip" x="75.4" y="104.27" width="852.51" height="795.35" color-interpolation-filters="sRGB" filterUnits="userSpaceOnUse">
      <feFlood flood-color="#fff" result="bg"/>
      <feBlend in="SourceGraphic" in2="bg"/>
    </filter>
    <mask id="mask" x="75.4" y="104.27" width="852.51" height="795.35" maskUnits="userSpaceOnUse">
      <g class="cls-9">
        <path class="cls-7" d="M153.51,531.35c0,21.57-17.48,39.05-39.05,39.05s-39.05-17.48-39.05-39.05,17.48-39.05,39.05-39.05,39.05,17.48,39.05,39.05ZM888.86,492.3c-21.57,0-39.05,17.48-39.05,39.05s17.48,39.05,39.05,39.05,39.05-17.48,39.05-39.05-17.48-39.05-39.05-39.05Z"/>
      </g>
    </mask>
    <clipPath id="clippath">
      <rect class="cls-3" x="157.49" y="137.81" width="345.31" height="809.13"/>
    </clipPath>
    <clipPath id="clippath-1">
      <rect class="cls-3" x="502.8" y="137.81" width="345.31" height="809.13"/>
    </clipPath>
  </defs>
  <g id="SAD">
    <path class="cls-5" d="M993.11,501.95c0,270.31-219.52,489.45-490.3,489.45S12.5,772.02,12.5,501.7,232.02,12.5,502.8,12.5s490.3,219.13,490.3,489.45Z"/>
    <g class="cls-1">
      <ellipse class="cls-4" cx="502.8" cy="501.95" rx="390.86" ry="390.18"/>
    </g>
    <g>
      <g id="_x3C_Mirror_Repeat_x3E_">
        <g class="cls-8">
          <path class="cls-2" d="M380.64,137.81c6.21,40.87,4.61,82.87-1.9,123.41-15.83,100.01-67.47,196.31-156.85,248.19-17.46,10.54-36.1,18.95-55.16,26.34l-9.23-29.42c63.48-15.08,118.53-58.61,150.33-115.41,38.25-68.14,50.75-153.49,31.19-229.23-1.22-4.29-2.55-8.5-4.04-12.6l45.66-11.29h0Z"/>
          <path class="cls-2" d="M502.8,226.92c9.31,74.93-22.14,175.08-59.96,239.77-21.63,36.49-49.73,70.33-74.8,104.51-5.09,6.74-8.61,14.51-11.07,22.62-2.13,7.14-3.74,14.61-5.67,21.75-3.24,12.14-8.56,23.45-12.11,35.48-17.97,59.21-22.54,131.25,15.91,183.11,28.55,38.03,76.77,54.36,122.98,60.01,8.33,1.12,16.78,1.84,25.29,2.43l-1.17,50.31c-9.64.16-19.34-.15-29.1-.76-40.28-2.76-81.12-12.78-115.73-34.38-104.43-64.7-104.6-203.85-58.21-305.08,7.55-15.83,20.49-28.51,32.39-41.15,7.79-8.42,15.98-17.73,23.17-26.64,22.51-27.54,40.19-58.93,57.61-89.81,40.11-69.18,76.79-142.49,90.46-222.16h0Z"/>
          <path class="cls-2" d="M200.27,898.95c6.43-39.05-3.77-79.13-8.84-118.97-10.24-66.24-2.27-130.07,31.67-188.75,9.11-16.22,19.96-31.95,31.45-46.55,27.69-35.24,60.35-66.57,94.93-94.89,0,0,2.24-2.13,2.24-2.13l3.96-.17s147.13-6.28,147.13-6.28c0,0,0,31.57,0,31.57l-147.13-6.28s6.2-2.3,6.2-2.3c-15.44,13.42-30.48,27.4-44.58,42.22-21.96,22.73-42.07,47.55-58.86,74.34-38.94,62.54-48.31,122.5-33.96,194.46,5.36,30.21,13.85,63.04,15.45,94.85.62,11.43.31,23.25-1.16,35.15,0,0-38.5-6.29-38.5-6.29h0Z"/>
          <path class="cls-2" d="M497.51,743.06c-7.21-10.71-14.57-22.83-21.18-33.96-37.25-64.55-97.97-178.29-134.72-244.79,0,0,28.15-14.62,28.15-14.62,8.67,17.99,26.25,53.83,35.15,71.67,12.59,25.32,40.73,82.97,53.77,106.97,10.9,20.57,21.73,41.19,31.5,62.33,6.95,15.14,13.42,30.64,17.92,46.9,0,0-10.6,5.5-10.6,5.5h0Z"/>
        </g>
      </g>
      <g id="_x3C_Mirror_Repeat_x3E_-2" data-name="_x3C_Mirror_Repeat_x3E_">
        <g class="cls-6">
          <path class="cls-2" d="M670.63,149.1c-12.14,34.59-14.65,71.82-12.25,108.38,5.31,73.98,35.23,148.84,92.02,198.18,27.94,24.5,61.81,41.85,97.71,50.68,0,0-9.23,29.42-9.23,29.42-57.26-21.17-108.87-58-144.78-107.59-53.76-74.04-76.57-167.87-72.43-258.74.57-10.56,1.71-21.07,3.29-31.62,0,0,45.66,11.29,45.66,11.29h0Z"/>
          <path class="cls-2" d="M502.8,226.92c13.67,79.67,50.35,152.98,90.46,222.16,17.42,30.89,35.09,62.26,57.61,89.81,7.18,8.91,15.39,18.22,23.17,26.64,11.9,12.64,24.84,25.32,32.39,41.15,46.39,101.3,46.24,240.32-58.21,305.08-34.61,21.59-75.44,31.62-115.73,34.38-9.76.61-19.46.92-29.1.76l-1.17-50.31c8.52-.59,16.97-1.31,25.29-2.43,46.21-5.65,94.44-21.98,122.98-60.01,38.45-51.85,33.88-123.9,15.92-183.11-3.55-12.03-8.87-23.34-12.11-35.48-2.22-8.16-3.96-16.74-6.66-24.81-2.39-7.06-5.63-13.63-10.08-19.56-25.08-34.18-53.16-68.01-74.8-104.51-37.82-64.7-69.26-164.8-59.96-239.77h0Z"/>
          <path class="cls-2" d="M775.4,903.84c-3.48-22.17-2.4-44.24.43-66.23,2.71-21.28,6.87-41.63,9.92-61.71,10.52-60.78,4.73-118.08-25.39-172.46-19.06-35.34-44.65-67.53-72.55-96.5-14.17-14.66-28.81-28.99-44.07-42.72,0,0,6.2,2.3,6.2,2.3,0,0-147.13,6.28-147.13,6.28,0,0,0-31.57,0-31.57,0,0,147.13,6.28,147.13,6.28l3.96.17s2.24,2.13,2.24,2.13c79.62,67.95,160.82,155.01,165.09,265.78,1.28,22.01-.11,43.91-2.43,65.07-4.08,39.19-12.68,79.5-4.9,116.91,0,0-38.5,6.28-38.5,6.28h0Z"/>
          <path class="cls-2" d="M497.51,737.56c4.61-12.06,10.29-25.05,15.6-36.86,31.38-67.6,89.5-182.69,122.76-251,0,0,28.14,14.62,28.14,14.62-9.73,17.44-28.93,52.43-38.41,69.98-13.47,24.86-44.45,81.04-56.57,105.51-10.56,20.75-21.19,41.47-32.86,61.62-8.38,14.4-17.35,28.6-28.06,41.64,0,0-10.6-5.5-10.6-5.5h0Z"/>
        </g>
      </g>
    </g>
    <circle class="cls-5" cx="117.63" cy="531.35" r="47.74"/>
    <circle class="cls-5" cx="892.03" cy="531.35" r="47.74"/>
  </g>
</svg>