<?xml version="1.0" encoding="UTF-8"?>
<svg id="Layer_2" xmlns="http://www.w3.org/2000/svg" viewBox="0 0 1005.61 1004.6">
  <defs>
    <style>
      .cls-1 {
        stroke-width: 25px;
      }

      .cls-1, .cls-2 {
        fill: none;
        stroke: #f39;
        stroke-miterlimit: 10;
      }

      .cls-3 {
        fill: #f39;
      }

      .cls-2 {
        stroke-width: 15px;
      }
    </style>
  </defs>
  <g id="SURPRISE">
    <ellipse class="cls-1" cx="502.8" cy="501.95" rx="490.3" ry="489.45"/>
    <ellipse class="cls-2" cx="502.8" cy="501.95" rx="390.86" ry="390.18"/>
    <path class="cls-3" d="M367.11,422.51c-.53,31.01-17.96,60.69-44.2,76.86-62.65,39.42-144-2.55-146.94-76.86-2.45-69.76,69.2-118.98,133.5-91.55,35.66,14.97,59.06,53.23,57.64,91.55h0ZM334.84,422.51c-.6-20.44-12.46-39.69-29.88-50.05-40.98-25.11-93.92,1.42-96.72,50.05-2.68,52.58,57.13,85.96,100.19,55.23,17.41-12.53,27.34-33.99,26.41-55.23h0Z"/>
    <path class="cls-3" d="M457.8,179.66c1.23,75.38,69.22,127.61,141.86,122.38,67.06-3.98,119.38-61.3,117.47-128.47-2.56-88.64-91.1-145.02-173.46-114.55-51.14,18.45-86.76,65.59-85.87,120.63h0ZM433.82,179.66c-1.14-53.11,24.41-106.37,68.06-137.29,84.95-60.54,205.95-22.13,243.44,74.45,51.44,133.63-79.52,263.49-212.42,209.44-58.28-23.81-98.87-83.56-99.08-146.6h0Z"/>
    <path class="cls-3" d="M749.89,725.31c-2.02-172.5-179.51-287.84-337.71-218.82-118.05,51.22-174.64,189.3-125.65,308.39,1.41,3.61,3.66,8.23,5.2,11.82,1.15,2.29,3.38,6.63,4.55,8.96.67,1.44,2.01,3.61,2.78,5.03,2.5,4.71,6.01,10.29,8.86,14.8,33.7,51.73,88.2,89.36,148.57,102.52,148.7,33.31,291.23-80.42,293.41-232.7h0ZM781.89,725.31c1.24,110.52-69.74,216.63-172.27,257.87-183.15,75.97-386.09-59.57-385.9-257.87-.18-198.3,202.76-333.84,385.9-257.87,102.52,41.25,173.52,147.34,172.27,257.87h0Z"/>
    <path class="cls-3" d="M950.03,314.22c-33.86,9.96-66.6,23.76-98.2,39.47-31.78,16.06-62.41,34.48-91.27,55.33-24.39,17.71-47.63,36.98-69.23,57.99-18.89,18.61-37.04,38.09-54.6,58-10.55,11.99-21.04,24.25-30.95,36.92-8.58,10.93-17.56,23.41-25.44,34.88-25.49,37.91-46.94,78.29-64.97,120.57-6.97,16.78-14.19,34.93-20.16,52.1,0,0-7.28,21.31-7.28,21.31l.89-11.25c4.79-56.82,17.28-113.3,37.32-166.73,10.05-26.98,22.61-53.99,36.4-79.25,12.15-22.15,25.88-44.18,41.66-63.94,24.29-30.85,53.81-57.24,84.59-81.43,55.45-42.72,118.44-75.89,185.32-96.55,20.44-6.3,41.24-11.49,62.43-14.67,0,0,2.98-.43,2.98-.43,0,0,3.22-.43,3.22-.43,0,0,7.28,38.12,7.28,38.12h0Z"/>
    <path class="cls-3" d="M755.57,767.13c9.99-56.89,11.29-116.45,1.44-173.23-15.08-87.96-62.58-160.72-151.91-184.78-2.89-.74-7.1-1.96-9.99-2.64-3.65-.73-9.06-1.95-12.69-2.7-4.82-.68-13.24-2.31-18.07-2.71-4.82-.47-10.85-1.35-15.68-1.54-14.81-1.18-30.17-1.17-45.01-.74-5.1.26-13.56.84-18.67,1.12-2.87.33-13.08,1.23-16.02,1.56-37.69,4.21-74.73,12.07-111.53,22.05,0,0-12.93-51.23-12.93-51.23,4.92-1.21,23.59-6.44,27.91-7.37,14.6-3.48,30.67-6.95,45.44-9.61,12.85-2.14,27.6-4.33,40.56-5.8,6.45-.83,16.88-1.5,23.49-2.09,4.21-.16,13.77-.67,17.77-.81,3.64-.26,14.02-.13,17.88-.21,7.88-.03,16.12.38,23.98.75,4.46.33,13.81,1.2,18.07,1.61,3.03.39,9.04,1.21,12.06,1.61,3.9.44,14.04,2.34,18.09,3.09,3.35.57,8.67,1.9,12.02,2.67,3.64.8,8.48,2.04,11.98,3.11,85.87,24.13,144.92,84.64,170.85,169.43,5.27,17.24,9.17,35.11,11.71,52.96,4.4,33.07,4.89,66.68,1.67,99.86-2.59,26.95-7.22,53.74-14.57,79.8,0,0-1.65,5.6-1.65,5.6-.29.94-.57,1.87-.88,2.82l-.96,2.94s-24.38-5.52-24.38-5.52h0Z"/>
    <path class="cls-3" d="M720.95,252.35c11.49,6.16,22.11,13.97,31.94,22.39,23.57,20.17,42.84,44.97,58.19,71.82,50.7,90.11,52.38,200.39,27.16,298.57-11.78,45.09-28.64,88.44-51.01,129.18,0,0-23.38-8.85-23.38-8.85,1.19-2.53,2.35-5.07,3.49-7.61,3.54-7.6,6.67-15.36,9.88-23.11,28.05-71.07,44.59-147.9,39.68-224.52-4.28-71.36-29.29-144.23-81.63-194.52-10.58-10.08-22.11-19.38-34.98-26.2-.35-.19-.65-.32-.97-.46-.06-.02-.22-.1-.07,0l21.71-36.69h0Z"/>
  </g>
</svg>